<?xml version="1.0" encoding="UTF-8" standalone="no"?>
<!-- Created with Inkscape (http://www.inkscape.org/) -->

<svg
   xmlns:dc="http://purl.org/dc/elements/1.1/"
   xmlns:cc="http://creativecommons.org/ns#"
   xmlns:rdf="http://www.w3.org/1999/02/22-rdf-syntax-ns#"
   xmlns:svg="http://www.w3.org/2000/svg"
   xmlns="http://www.w3.org/2000/svg"
   xmlns:sodipodi="http://sodipodi.sourceforge.net/DTD/sodipodi-0.dtd"
   xmlns:inkscape="http://www.inkscape.org/namespaces/inkscape"
   width="118.25787mm"
   height="119.93582mm"
   viewBox="0 0 118.25787 119.93582"
   version="1.1"
   id="svg8"
   inkscape:version="0.92.4 (5da689c313, 2019-01-14)"
   sodipodi:docname="zhegal.svg">
  <defs
     id="defs2" />
  <sodipodi:namedview
     id="base"
     pagecolor="#ffffff"
     bordercolor="#666666"
     borderopacity="1.0"
     inkscape:pageopacity="0.0"
     inkscape:pageshadow="2"
     inkscape:zoom="0.49497475"
     inkscape:cx="256.36705"
     inkscape:cy="354.63664"
     inkscape:document-units="mm"
     inkscape:current-layer="layer1"
     showgrid="false"
     showguides="true"
     inkscape:guide-bbox="true"
     inkscape:snap-global="true"
     inkscape:window-width="1366"
     inkscape:window-height="706"
     inkscape:window-x="-8"
     inkscape:window-y="-8"
     inkscape:window-maximized="1"
     fit-margin-top="0"
     fit-margin-left="0"
     fit-margin-right="0"
     fit-margin-bottom="0">
    <sodipodi:guide
       position="123.55623,-73.211128"
       orientation="1,0"
       id="guide869"
       inkscape:locked="false" />
    <sodipodi:guide
       position="176.56037,-71.309708"
       orientation="0,1"
       id="guide871"
       inkscape:locked="false" />
    <sodipodi:guide
       position="121.70414,-73.343705"
       orientation="1,0"
       id="guide873"
       inkscape:locked="false" />
    <sodipodi:guide
       position="123.55623,-73.211125"
       orientation="0,1"
       id="guide875"
       inkscape:locked="false" />
    <sodipodi:guide
       position="159.01039,-147.02988"
       orientation="1,0"
       id="guide877"
       inkscape:locked="false" />
    <sodipodi:guide
       position="51.981938,-82.49951"
       orientation="1,0"
       id="guide881"
       inkscape:locked="false" />
    <sodipodi:guide
       position="51.981938,-39.602749"
       orientation="1,0"
       id="guide883"
       inkscape:locked="false" />
    <sodipodi:guide
       position="123.55623,-73.211125"
       orientation="0.70710678,0.70710678"
       id="guide945"
       inkscape:locked="false"
       inkscape:label=""
       inkscape:color="rgb(0,0,255)" />
    <sodipodi:guide
       position="123.55623,-71.309706"
       orientation="-0.70710678,0.70710678"
       id="guide947"
       inkscape:locked="false" />
    <sodipodi:guide
       position="87.127879,-44.814509"
       orientation="-0.70710678,0.70710678"
       id="guide949"
       inkscape:locked="false" />
    <sodipodi:guide
       position="99.422276,-24.50202"
       orientation="-0.70710678,0.70710678"
       id="guide951"
       inkscape:locked="false" />
    <sodipodi:guide
       position="88.33059,-27.30835"
       orientation="0,1"
       id="guide953"
       inkscape:locked="false" />
    <sodipodi:guide
       position="51.981938,-33.589189"
       orientation="0,1"
       id="guide955"
       inkscape:locked="false" />
    <sodipodi:guide
       position="59.788056,-32.780559"
       orientation="-0.70710678,0.70710678"
       id="guide957"
       inkscape:locked="false" />
    <sodipodi:guide
       position="159.0104,-64.959708"
       orientation="0,1"
       id="guide959"
       inkscape:locked="false" />
    <sodipodi:guide
       position="99.227296,-36.059649"
       orientation="-0.70710678,0.70710678"
       id="guide961"
       inkscape:locked="false" />
    <sodipodi:guide
       position="159.01039,-27.30835"
       orientation="-0.70710678,0.70710678"
       id="guide963"
       inkscape:locked="false" />
    <sodipodi:guide
       position="159.01039,-71.309706"
       orientation="0.70710678,0.70710678"
       id="guide971"
       inkscape:locked="false" />
    <sodipodi:guide
       position="152.72955,-33.589189"
       orientation="1,0"
       id="guide974"
       inkscape:locked="false" />
    <sodipodi:guide
       position="159.01039,-147.02987"
       orientation="0.70710678,0.70710678"
       id="guide977"
       inkscape:locked="false" />
    <sodipodi:guide
       position="159.01039,-140.67987"
       orientation="0,1"
       id="guide979"
       inkscape:locked="false" />
  </sodipodi:namedview>
  <metadata
     id="metadata5">
    <rdf:RDF>
      <cc:Work
         rdf:about="">
        <dc:format>image/svg+xml</dc:format>
        <dc:type
           rdf:resource="http://purl.org/dc/dcmitype/StillImage" />
        <dc:title></dc:title>
      </cc:Work>
    </rdf:RDF>
  </metadata>
  <g
     inkscape:label="Layer 1"
     inkscape:groupmode="layer"
     id="layer1"
     transform="translate(-4.6792006,-8.2366065)">
    <path
       style="fill:#000000;stroke-width:0.26458335"
       d="M 37.873378,127.907 C 21.112968,126.12637 7.9460379,113.82691 5.0554779,97.251229 c -0.50847,-2.91578 -0.50019,-9.09801 0.0162,-12.10507 2.28514,-13.30663 11.8870601,-24.54905 24.6164201,-28.82216 1.14458,-0.38422 3.21638,-0.94575 4.604,-1.24785 2.42395,-0.52771 3.42607,-0.55307 25.541692,-0.6463 l 23.01874,-0.097 -3.15863,3.17318 -3.15863,3.17317 -19.99241,0.0917 c -19.524582,0.0895 -20.043132,0.1051 -22.160262,0.66614 -12.00011,3.18006 -20.42234,11.94036 -23.00355,23.92693 -0.67606,3.13949 -0.62389,9.03409 0.10856,12.26489 1.66727,7.354281 5.75307,13.655791 11.83368,18.251051 2.14285,1.6194 6.90006,3.94266 9.68691,4.73076 7.57839,2.14309 14.93573,1.44691 22.063092,-2.08771 4.87032,-2.4153 9.09638,-6.10253 11.83555,-10.32649 l 1.02947,-1.5875 -11.17973,-0.13229 -11.179732,-0.13229 3.0406,-3.10885 3.0406,-3.10886 H 64.41102 c 9.11598,0 12.75296,0.0832 12.75296,0.2917 0,0.70012 -1.66302,5.16192 -2.67176,7.16822 -4.46702,8.88445 -12.06871,15.46226 -21.49758,18.60205 -4.594502,1.52995 -10.537862,2.20537 -15.121282,1.71843 z M 79.28067,113.48806 V 98.803689 H 64.79602 50.311368 l -9.97857,9.975981 -9.97858,9.97598 -2.19355,-1.11905 c -1.20645,-0.61547 -2.4912,-1.35036 -2.855,-1.63307 L 24.644208,115.4895 55.13744,84.987879 85.63066,54.486259 v 36.84309 36.843081 h -3.175 -3.17499 z m 0,-32.279171 c 0,-6.18463 -0.0303,-11.24479 -0.0673,-11.24479 -0.037,0 -5.12642,5.06016 -11.30977,11.24479 l -11.24246,11.24479 h 11.30977 11.30977 z m 8.37847,46.787161 c -0.097,-0.097 -0.17639,-16.70624 -0.17639,-36.909381 v -36.73299 h 3.175 3.175 v 33.73438 33.734371 h 14.55208 8.20209 l 6.35,6.35 h -17.5507 c -9.65288,0 -17.63007,-0.0794 -17.72708,-0.17638 z"
       id="path828"
       inkscape:connector-curvature="0"
       sodipodi:nodetypes="cscccccccccccscsscccccssccccccccccccccccccccssscccscsccccccccsc" />
    <path
       style="fill:#000000;stroke-width:0.26458335"
       d="M 68.775,8.2366065 29.18672,8.4510645 22.905967,14.731818 H 54.26168 l -37.720699,37.720691 6.710185,0.0656 37.244234,-0.0661 v -0.89607 -5.4405 L 30.909096,46.102539 45.881309,31.8445 H 63.14124 v 11.783258 8.843391 h 6.35 V 31.84447 h 9.78958 v 20.608039 h 6.35 v -5.1e-4 l 0.0403,-8.37055 c 0.0221,-6.221021 0.0519,-11.489534 0.0661,-11.707812 0.0183,-0.281102 -0.40127,-0.420392 0.48886,-0.477491 l 0.80564,-0.05168 h 0.45113 v 11.759488 8.848045 h 2.38694 v 5.1e-4 h 33.06723 l -6.35,-6.35 H 93.84376 V 31.84447 h 13.87977 8.93279 V 29.198637 26.552803 25.49447 H 93.84376 V 14.884782 l 22.81256,-0.152964 6.28075,-6.1706815 h -15.21354 -2.64222 -15.21147 -2.3797 l -0.0698,8.9296875 -0.0625,8.003646 h -1.60197 l -0.0625,-8.003646 -0.0625,-8.0036455 v -0.962732 h -6.35 V 25.49447 H 69.49129 V 10.876241 l -6.3376,6.325711 -0.0724,4.609537 -0.0584,3.682981 H 51.568816 Z"
       id="path828-2"
       inkscape:connector-curvature="0" />
  </g>
</svg>
